<mxfile host="app.diagrams.net" modified="2021-09-28T02:53:31.581Z" agent="5.0 (Windows NT 10.0; Win64; x64) AppleWebKit/537.36 (KHTML, like Gecko) Chrome/90.0.4430.93 Safari/537.36" etag="4Na6cXm12cgEH5XrYYVC" version="14.9.4" type="github">
  <diagram id="4ZUA-oB-a7aE9RYK-pqL" name="Page-1">
    <mxGraphModel dx="1999" dy="1106" grid="1" gridSize="10" guides="1" tooltips="1" connect="1" arrows="1" fold="1" page="1" pageScale="1" pageWidth="827" pageHeight="1169" math="0" shadow="0">
      <root>
        <mxCell id="0" />
        <mxCell id="1" parent="0" />
        <mxCell id="zb0AIQ8FTANLbSavlnyJ-1" value="set_ftrace_filter" style="rounded=0;whiteSpace=wrap;html=1;" vertex="1" parent="1">
          <mxGeometry x="360" y="400" width="120" height="60" as="geometry" />
        </mxCell>
        <mxCell id="zb0AIQ8FTANLbSavlnyJ-2" value="private = global_ops" style="rounded=0;whiteSpace=wrap;html=1;" vertex="1" parent="1">
          <mxGeometry x="360" y="460" width="120" height="60" as="geometry" />
        </mxCell>
        <mxCell id="zb0AIQ8FTANLbSavlnyJ-3" value="set_ftrace_notrace" style="rounded=0;whiteSpace=wrap;html=1;" vertex="1" parent="1">
          <mxGeometry x="520" y="400" width="120" height="60" as="geometry" />
        </mxCell>
        <mxCell id="zb0AIQ8FTANLbSavlnyJ-4" value="private = global_ops" style="rounded=0;whiteSpace=wrap;html=1;" vertex="1" parent="1">
          <mxGeometry x="520" y="460" width="120" height="60" as="geometry" />
        </mxCell>
        <mxCell id="zb0AIQ8FTANLbSavlnyJ-5" value="available_tracers" style="rounded=0;whiteSpace=wrap;html=1;" vertex="1" parent="1">
          <mxGeometry x="200" y="400" width="120" height="60" as="geometry" />
        </mxCell>
        <mxCell id="zb0AIQ8FTANLbSavlnyJ-6" value="global_trace" style="rounded=0;whiteSpace=wrap;html=1;" vertex="1" parent="1">
          <mxGeometry x="200" y="460" width="120" height="60" as="geometry" />
        </mxCell>
        <mxCell id="zb0AIQ8FTANLbSavlnyJ-7" value="current_tracer" style="rounded=0;whiteSpace=wrap;html=1;" vertex="1" parent="1">
          <mxGeometry x="40" y="400" width="120" height="60" as="geometry" />
        </mxCell>
        <mxCell id="zb0AIQ8FTANLbSavlnyJ-8" value="global_trace" style="rounded=0;whiteSpace=wrap;html=1;" vertex="1" parent="1">
          <mxGeometry x="40" y="460" width="120" height="60" as="geometry" />
        </mxCell>
        <mxCell id="zb0AIQ8FTANLbSavlnyJ-9" value="trace_pipe" style="rounded=0;whiteSpace=wrap;html=1;" vertex="1" parent="1">
          <mxGeometry x="40" y="560" width="120" height="60" as="geometry" />
        </mxCell>
        <mxCell id="zb0AIQ8FTANLbSavlnyJ-10" value="global_trace" style="rounded=0;whiteSpace=wrap;html=1;" vertex="1" parent="1">
          <mxGeometry x="40" y="620" width="120" height="60" as="geometry" />
        </mxCell>
        <mxCell id="zb0AIQ8FTANLbSavlnyJ-59" value="" style="edgeStyle=none;rounded=0;orthogonalLoop=1;jettySize=auto;html=1;" edge="1" parent="1" source="zb0AIQ8FTANLbSavlnyJ-11" target="zb0AIQ8FTANLbSavlnyJ-12">
          <mxGeometry relative="1" as="geometry" />
        </mxCell>
        <mxCell id="zb0AIQ8FTANLbSavlnyJ-11" value="global_ops&lt;br&gt;&lt;br&gt;function tracer" style="rounded=0;whiteSpace=wrap;html=1;" vertex="1" parent="1">
          <mxGeometry x="600" y="880" width="120" height="60" as="geometry" />
        </mxCell>
        <mxCell id="zb0AIQ8FTANLbSavlnyJ-60" value="" style="edgeStyle=none;rounded=0;orthogonalLoop=1;jettySize=auto;html=1;" edge="1" parent="1" source="zb0AIQ8FTANLbSavlnyJ-12" target="zb0AIQ8FTANLbSavlnyJ-13">
          <mxGeometry relative="1" as="geometry" />
        </mxCell>
        <mxCell id="zb0AIQ8FTANLbSavlnyJ-12" value="graph_ops" style="rounded=0;whiteSpace=wrap;html=1;" vertex="1" parent="1">
          <mxGeometry x="760" y="880" width="120" height="60" as="geometry" />
        </mxCell>
        <mxCell id="zb0AIQ8FTANLbSavlnyJ-61" value="" style="edgeStyle=none;rounded=0;orthogonalLoop=1;jettySize=auto;html=1;" edge="1" parent="1" source="zb0AIQ8FTANLbSavlnyJ-13" target="zb0AIQ8FTANLbSavlnyJ-34">
          <mxGeometry relative="1" as="geometry" />
        </mxCell>
        <mxCell id="zb0AIQ8FTANLbSavlnyJ-13" value="ftrace_profile_ops" style="rounded=0;whiteSpace=wrap;html=1;" vertex="1" parent="1">
          <mxGeometry x="920" y="880" width="120" height="60" as="geometry" />
        </mxCell>
        <mxCell id="zb0AIQ8FTANLbSavlnyJ-56" style="rounded=0;orthogonalLoop=1;jettySize=auto;html=1;exitX=1;exitY=0;exitDx=0;exitDy=0;entryX=0;entryY=0;entryDx=0;entryDy=0;" edge="1" parent="1" source="zb0AIQ8FTANLbSavlnyJ-14" target="zb0AIQ8FTANLbSavlnyJ-52">
          <mxGeometry relative="1" as="geometry" />
        </mxCell>
        <mxCell id="zb0AIQ8FTANLbSavlnyJ-57" style="edgeStyle=none;rounded=0;orthogonalLoop=1;jettySize=auto;html=1;exitX=1;exitY=1;exitDx=0;exitDy=0;entryX=0.013;entryY=1;entryDx=0;entryDy=0;entryPerimeter=0;" edge="1" parent="1" source="zb0AIQ8FTANLbSavlnyJ-14" target="zb0AIQ8FTANLbSavlnyJ-54">
          <mxGeometry relative="1" as="geometry" />
        </mxCell>
        <mxCell id="zb0AIQ8FTANLbSavlnyJ-14" value="ftrace_list_end" style="rounded=0;whiteSpace=wrap;html=1;" vertex="1" parent="1">
          <mxGeometry x="1241" y="880" width="120" height="60" as="geometry" />
        </mxCell>
        <mxCell id="zb0AIQ8FTANLbSavlnyJ-58" style="edgeStyle=none;rounded=0;orthogonalLoop=1;jettySize=auto;html=1;exitX=1;exitY=0.5;exitDx=0;exitDy=0;entryX=0;entryY=0.5;entryDx=0;entryDy=0;" edge="1" parent="1" source="zb0AIQ8FTANLbSavlnyJ-15" target="zb0AIQ8FTANLbSavlnyJ-11">
          <mxGeometry relative="1" as="geometry" />
        </mxCell>
        <mxCell id="zb0AIQ8FTANLbSavlnyJ-15" value="function_trace_op&lt;br&gt;链表头 只是个指针" style="whiteSpace=wrap;html=1;fillColor=#ffe6cc;strokeColor=#d79b00;" vertex="1" parent="1">
          <mxGeometry x="280" y="880" width="240" height="60" as="geometry" />
        </mxCell>
        <mxCell id="zb0AIQ8FTANLbSavlnyJ-21" value="global_ops" style="swimlane;fontStyle=0;childLayout=stackLayout;horizontal=1;startSize=26;horizontalStack=0;resizeParent=1;resizeParentMax=0;resizeLast=0;collapsible=1;marginBottom=0;align=center;fontSize=14;" vertex="1" parent="1">
          <mxGeometry x="940" y="685" width="160" height="116" as="geometry" />
        </mxCell>
        <mxCell id="zb0AIQ8FTANLbSavlnyJ-22" value="private" style="text;strokeColor=none;fillColor=none;spacingLeft=4;spacingRight=4;overflow=hidden;rotatable=0;points=[[0,0.5],[1,0.5]];portConstraint=eastwest;fontSize=12;" vertex="1" parent="zb0AIQ8FTANLbSavlnyJ-21">
          <mxGeometry y="26" width="160" height="30" as="geometry" />
        </mxCell>
        <mxCell id="zb0AIQ8FTANLbSavlnyJ-23" value="Item 2" style="text;strokeColor=none;fillColor=none;spacingLeft=4;spacingRight=4;overflow=hidden;rotatable=0;points=[[0,0.5],[1,0.5]];portConstraint=eastwest;fontSize=12;" vertex="1" parent="zb0AIQ8FTANLbSavlnyJ-21">
          <mxGeometry y="56" width="160" height="30" as="geometry" />
        </mxCell>
        <mxCell id="zb0AIQ8FTANLbSavlnyJ-24" value="Item 3" style="text;strokeColor=none;fillColor=none;spacingLeft=4;spacingRight=4;overflow=hidden;rotatable=0;points=[[0,0.5],[1,0.5]];portConstraint=eastwest;fontSize=12;" vertex="1" parent="zb0AIQ8FTANLbSavlnyJ-21">
          <mxGeometry y="86" width="160" height="30" as="geometry" />
        </mxCell>
        <mxCell id="zb0AIQ8FTANLbSavlnyJ-25" value="global_trace" style="swimlane;fontStyle=0;childLayout=stackLayout;horizontal=1;startSize=26;horizontalStack=0;resizeParent=1;resizeParentMax=0;resizeLast=0;collapsible=1;marginBottom=0;align=center;fontSize=14;" vertex="1" parent="1">
          <mxGeometry x="1270" y="695" width="160" height="116" as="geometry" />
        </mxCell>
        <mxCell id="zb0AIQ8FTANLbSavlnyJ-26" value="ops" style="text;strokeColor=none;fillColor=none;spacingLeft=4;spacingRight=4;overflow=hidden;rotatable=0;points=[[0,0.5],[1,0.5]];portConstraint=eastwest;fontSize=12;" vertex="1" parent="zb0AIQ8FTANLbSavlnyJ-25">
          <mxGeometry y="26" width="160" height="30" as="geometry" />
        </mxCell>
        <mxCell id="zb0AIQ8FTANLbSavlnyJ-27" value="Item 2" style="text;strokeColor=none;fillColor=none;spacingLeft=4;spacingRight=4;overflow=hidden;rotatable=0;points=[[0,0.5],[1,0.5]];portConstraint=eastwest;fontSize=12;" vertex="1" parent="zb0AIQ8FTANLbSavlnyJ-25">
          <mxGeometry y="56" width="160" height="30" as="geometry" />
        </mxCell>
        <mxCell id="zb0AIQ8FTANLbSavlnyJ-28" value="Item 3" style="text;strokeColor=none;fillColor=none;spacingLeft=4;spacingRight=4;overflow=hidden;rotatable=0;points=[[0,0.5],[1,0.5]];portConstraint=eastwest;fontSize=12;" vertex="1" parent="zb0AIQ8FTANLbSavlnyJ-25">
          <mxGeometry y="86" width="160" height="30" as="geometry" />
        </mxCell>
        <mxCell id="zb0AIQ8FTANLbSavlnyJ-29" style="edgeStyle=orthogonalEdgeStyle;rounded=0;orthogonalLoop=1;jettySize=auto;html=1;exitX=0;exitY=0.5;exitDx=0;exitDy=0;entryX=1;entryY=0;entryDx=0;entryDy=0;" edge="1" parent="1" source="zb0AIQ8FTANLbSavlnyJ-26" target="zb0AIQ8FTANLbSavlnyJ-21">
          <mxGeometry relative="1" as="geometry" />
        </mxCell>
        <mxCell id="zb0AIQ8FTANLbSavlnyJ-30" style="edgeStyle=orthogonalEdgeStyle;rounded=0;orthogonalLoop=1;jettySize=auto;html=1;exitX=1;exitY=0.5;exitDx=0;exitDy=0;entryX=0;entryY=0;entryDx=0;entryDy=0;" edge="1" parent="1" source="zb0AIQ8FTANLbSavlnyJ-22" target="zb0AIQ8FTANLbSavlnyJ-25">
          <mxGeometry relative="1" as="geometry">
            <Array as="points">
              <mxPoint x="1210" y="726" />
              <mxPoint x="1210" y="675" />
              <mxPoint x="1270" y="675" />
            </Array>
          </mxGeometry>
        </mxCell>
        <mxCell id="zb0AIQ8FTANLbSavlnyJ-32" value="ftrace_init_global_array_ops" style="text;html=1;align=center;verticalAlign=middle;resizable=0;points=[];autosize=1;strokeColor=none;" vertex="1" parent="1">
          <mxGeometry x="1100" y="625" width="170" height="20" as="geometry" />
        </mxCell>
        <mxCell id="zb0AIQ8FTANLbSavlnyJ-62" value="" style="edgeStyle=none;rounded=0;orthogonalLoop=1;jettySize=auto;html=1;" edge="1" parent="1" source="zb0AIQ8FTANLbSavlnyJ-34" target="zb0AIQ8FTANLbSavlnyJ-14">
          <mxGeometry relative="1" as="geometry" />
        </mxCell>
        <mxCell id="zb0AIQ8FTANLbSavlnyJ-34" value="direct_ops" style="rounded=0;whiteSpace=wrap;html=1;" vertex="1" parent="1">
          <mxGeometry x="1080" y="880" width="120" height="60" as="geometry" />
        </mxCell>
        <mxCell id="zb0AIQ8FTANLbSavlnyJ-39" style="edgeStyle=orthogonalEdgeStyle;rounded=0;orthogonalLoop=1;jettySize=auto;html=1;exitX=0.5;exitY=0;exitDx=0;exitDy=0;" edge="1" parent="1" source="zb0AIQ8FTANLbSavlnyJ-35" target="zb0AIQ8FTANLbSavlnyJ-37">
          <mxGeometry relative="1" as="geometry" />
        </mxCell>
        <mxCell id="zb0AIQ8FTANLbSavlnyJ-35" value="global_trace" style="whiteSpace=wrap;html=1;fillColor=#ffe6cc;strokeColor=#d79b00;" vertex="1" parent="1">
          <mxGeometry x="160" y="1280" width="240" height="60" as="geometry" />
        </mxCell>
        <mxCell id="zb0AIQ8FTANLbSavlnyJ-37" value="blk_tracer" style="rounded=0;whiteSpace=wrap;html=1;" vertex="1" parent="1">
          <mxGeometry x="420" y="1130" width="120" height="60" as="geometry" />
        </mxCell>
        <mxCell id="zb0AIQ8FTANLbSavlnyJ-38" value="graph_trace" style="rounded=0;whiteSpace=wrap;html=1;" vertex="1" parent="1">
          <mxGeometry x="580" y="1130" width="120" height="60" as="geometry" />
        </mxCell>
        <mxCell id="zb0AIQ8FTANLbSavlnyJ-40" value="current_trace" style="text;html=1;align=center;verticalAlign=middle;resizable=0;points=[];autosize=1;strokeColor=none;" vertex="1" parent="1">
          <mxGeometry x="540" y="1300" width="90" height="20" as="geometry" />
        </mxCell>
        <mxCell id="zb0AIQ8FTANLbSavlnyJ-41" value="function_trace" style="whiteSpace=wrap;html=1;" vertex="1" parent="1">
          <mxGeometry x="740" y="1130" width="120" height="60" as="geometry" />
        </mxCell>
        <mxCell id="zb0AIQ8FTANLbSavlnyJ-42" value="&lt;div&gt;mmio_tracer&lt;br&gt;&lt;/div&gt;" style="whiteSpace=wrap;html=1;" vertex="1" parent="1">
          <mxGeometry x="1060.5" y="1130" width="120" height="60" as="geometry" />
        </mxCell>
        <mxCell id="zb0AIQ8FTANLbSavlnyJ-43" value="wakeup_tracer" style="whiteSpace=wrap;html=1;" vertex="1" parent="1">
          <mxGeometry x="1220" y="1130" width="120" height="60" as="geometry" />
        </mxCell>
        <mxCell id="zb0AIQ8FTANLbSavlnyJ-44" value="wakeup_rt_tracer" style="whiteSpace=wrap;html=1;" vertex="1" parent="1">
          <mxGeometry x="740" y="1250" width="120" height="60" as="geometry" />
        </mxCell>
        <mxCell id="zb0AIQ8FTANLbSavlnyJ-45" value="wakeup_dl_tracer" style="whiteSpace=wrap;html=1;" vertex="1" parent="1">
          <mxGeometry x="900" y="1250" width="120" height="60" as="geometry" />
        </mxCell>
        <mxCell id="zb0AIQ8FTANLbSavlnyJ-46" value="irqsoff_tracer" style="whiteSpace=wrap;html=1;" vertex="1" parent="1">
          <mxGeometry x="900" y="1130" width="120" height="60" as="geometry" />
        </mxCell>
        <mxCell id="zb0AIQ8FTANLbSavlnyJ-47" value="preemptoff_tracer" style="whiteSpace=wrap;html=1;" vertex="1" parent="1">
          <mxGeometry x="1060.5" y="1250" width="120" height="60" as="geometry" />
        </mxCell>
        <mxCell id="zb0AIQ8FTANLbSavlnyJ-48" value="preemptirqsoff_tracer" style="whiteSpace=wrap;html=1;" vertex="1" parent="1">
          <mxGeometry x="1220" y="1250" width="120" height="60" as="geometry" />
        </mxCell>
        <mxCell id="zb0AIQ8FTANLbSavlnyJ-49" value="branch_trace" style="whiteSpace=wrap;html=1;" vertex="1" parent="1">
          <mxGeometry x="740" y="1370" width="120" height="60" as="geometry" />
        </mxCell>
        <mxCell id="zb0AIQ8FTANLbSavlnyJ-50" value="annotated_branch_stats" style="whiteSpace=wrap;html=1;" vertex="1" parent="1">
          <mxGeometry x="740" y="1440" width="140" height="60" as="geometry" />
        </mxCell>
        <mxCell id="zb0AIQ8FTANLbSavlnyJ-51" value="all_branch_stats" style="whiteSpace=wrap;html=1;" vertex="1" parent="1">
          <mxGeometry x="740" y="1520" width="120" height="60" as="geometry" />
        </mxCell>
        <mxCell id="zb0AIQ8FTANLbSavlnyJ-52" value="List" style="swimlane;fontStyle=0;childLayout=stackLayout;horizontal=1;startSize=26;horizontalStack=0;resizeParent=1;resizeParentMax=0;resizeLast=0;collapsible=1;marginBottom=0;align=center;fontSize=14;" vertex="1" parent="1">
          <mxGeometry x="1610" y="880" width="160" height="86" as="geometry" />
        </mxCell>
        <mxCell id="zb0AIQ8FTANLbSavlnyJ-53" value="trampoline" style="text;strokeColor=none;fillColor=none;spacingLeft=4;spacingRight=4;overflow=hidden;rotatable=0;points=[[0,0.5],[1,0.5]];portConstraint=eastwest;fontSize=12;" vertex="1" parent="zb0AIQ8FTANLbSavlnyJ-52">
          <mxGeometry y="26" width="160" height="30" as="geometry" />
        </mxCell>
        <mxCell id="zb0AIQ8FTANLbSavlnyJ-54" value="func_hash" style="text;strokeColor=none;fillColor=none;spacingLeft=4;spacingRight=4;overflow=hidden;rotatable=0;points=[[0,0.5],[1,0.5]];portConstraint=eastwest;fontSize=12;" vertex="1" parent="zb0AIQ8FTANLbSavlnyJ-52">
          <mxGeometry y="56" width="160" height="30" as="geometry" />
        </mxCell>
        <mxCell id="zb0AIQ8FTANLbSavlnyJ-64" value="trace_array" style="swimlane;fontStyle=0;childLayout=stackLayout;horizontal=1;startSize=26;horizontalStack=0;resizeParent=1;resizeParentMax=0;resizeLast=0;collapsible=1;marginBottom=0;align=center;fontSize=14;" vertex="1" parent="1">
          <mxGeometry x="1580" y="650" width="160" height="116" as="geometry" />
        </mxCell>
        <mxCell id="zb0AIQ8FTANLbSavlnyJ-65" value="ops" style="text;strokeColor=none;fillColor=none;spacingLeft=4;spacingRight=4;overflow=hidden;rotatable=0;points=[[0,0.5],[1,0.5]];portConstraint=eastwest;fontSize=12;" vertex="1" parent="zb0AIQ8FTANLbSavlnyJ-64">
          <mxGeometry y="26" width="160" height="30" as="geometry" />
        </mxCell>
        <mxCell id="zb0AIQ8FTANLbSavlnyJ-66" value="Item 2" style="text;strokeColor=none;fillColor=none;spacingLeft=4;spacingRight=4;overflow=hidden;rotatable=0;points=[[0,0.5],[1,0.5]];portConstraint=eastwest;fontSize=12;" vertex="1" parent="zb0AIQ8FTANLbSavlnyJ-64">
          <mxGeometry y="56" width="160" height="30" as="geometry" />
        </mxCell>
        <mxCell id="zb0AIQ8FTANLbSavlnyJ-67" value="Item 3" style="text;strokeColor=none;fillColor=none;spacingLeft=4;spacingRight=4;overflow=hidden;rotatable=0;points=[[0,0.5],[1,0.5]];portConstraint=eastwest;fontSize=12;" vertex="1" parent="zb0AIQ8FTANLbSavlnyJ-64">
          <mxGeometry y="86" width="160" height="30" as="geometry" />
        </mxCell>
        <mxCell id="zb0AIQ8FTANLbSavlnyJ-68" value="trace_array" style="swimlane;fontStyle=0;childLayout=stackLayout;horizontal=1;startSize=26;horizontalStack=0;resizeParent=1;resizeParentMax=0;resizeLast=0;collapsible=1;marginBottom=0;align=center;fontSize=14;" vertex="1" parent="1">
          <mxGeometry x="1920" y="660" width="160" height="116" as="geometry" />
        </mxCell>
        <mxCell id="zb0AIQ8FTANLbSavlnyJ-69" value="private" style="text;strokeColor=none;fillColor=none;spacingLeft=4;spacingRight=4;overflow=hidden;rotatable=0;points=[[0,0.5],[1,0.5]];portConstraint=eastwest;fontSize=12;" vertex="1" parent="zb0AIQ8FTANLbSavlnyJ-68">
          <mxGeometry y="26" width="160" height="30" as="geometry" />
        </mxCell>
        <mxCell id="zb0AIQ8FTANLbSavlnyJ-70" value="Item 2" style="text;strokeColor=none;fillColor=none;spacingLeft=4;spacingRight=4;overflow=hidden;rotatable=0;points=[[0,0.5],[1,0.5]];portConstraint=eastwest;fontSize=12;" vertex="1" parent="zb0AIQ8FTANLbSavlnyJ-68">
          <mxGeometry y="56" width="160" height="30" as="geometry" />
        </mxCell>
        <mxCell id="zb0AIQ8FTANLbSavlnyJ-71" value="Item 3" style="text;strokeColor=none;fillColor=none;spacingLeft=4;spacingRight=4;overflow=hidden;rotatable=0;points=[[0,0.5],[1,0.5]];portConstraint=eastwest;fontSize=12;" vertex="1" parent="zb0AIQ8FTANLbSavlnyJ-68">
          <mxGeometry y="86" width="160" height="30" as="geometry" />
        </mxCell>
        <mxCell id="zb0AIQ8FTANLbSavlnyJ-72" style="edgeStyle=elbowEdgeStyle;rounded=0;orthogonalLoop=1;jettySize=auto;html=1;exitX=1;exitY=0.5;exitDx=0;exitDy=0;entryX=0;entryY=0;entryDx=0;entryDy=0;" edge="1" parent="1" source="zb0AIQ8FTANLbSavlnyJ-65" target="zb0AIQ8FTANLbSavlnyJ-68">
          <mxGeometry relative="1" as="geometry" />
        </mxCell>
        <mxCell id="zb0AIQ8FTANLbSavlnyJ-73" style="edgeStyle=elbowEdgeStyle;rounded=0;orthogonalLoop=1;jettySize=auto;html=1;exitX=0;exitY=0.5;exitDx=0;exitDy=0;entryX=1;entryY=0;entryDx=0;entryDy=0;" edge="1" parent="1" source="zb0AIQ8FTANLbSavlnyJ-69" target="zb0AIQ8FTANLbSavlnyJ-64">
          <mxGeometry relative="1" as="geometry">
            <Array as="points">
              <mxPoint x="1800" y="680" />
            </Array>
          </mxGeometry>
        </mxCell>
        <mxCell id="zb0AIQ8FTANLbSavlnyJ-74" value="trace_array_create" style="text;html=1;align=center;verticalAlign=middle;resizable=0;points=[];autosize=1;strokeColor=none;" vertex="1" parent="1">
          <mxGeometry x="1700" y="610" width="120" height="20" as="geometry" />
        </mxCell>
        <mxCell id="zb0AIQ8FTANLbSavlnyJ-87" style="edgeStyle=orthogonalEdgeStyle;rounded=0;orthogonalLoop=1;jettySize=auto;html=1;exitX=0.25;exitY=1;exitDx=0;exitDy=0;entryX=0.5;entryY=0;entryDx=0;entryDy=0;" edge="1" parent="1" source="zb0AIQ8FTANLbSavlnyJ-75" target="zb0AIQ8FTANLbSavlnyJ-89">
          <mxGeometry relative="1" as="geometry">
            <mxPoint x="1630" y="1540" as="targetPoint" />
          </mxGeometry>
        </mxCell>
        <mxCell id="zb0AIQ8FTANLbSavlnyJ-75" value="dentry&lt;br&gt;&lt;br&gt;tracing" style="rounded=0;whiteSpace=wrap;html=1;fillColor=#f8cecc;strokeColor=#b85450;" vertex="1" parent="1">
          <mxGeometry x="1700" y="1300" width="120" height="60" as="geometry" />
        </mxCell>
        <mxCell id="zb0AIQ8FTANLbSavlnyJ-77" value="tracing_array" style="swimlane;fontStyle=0;childLayout=stackLayout;horizontal=1;startSize=26;horizontalStack=0;resizeParent=1;resizeParentMax=0;resizeLast=0;collapsible=1;marginBottom=0;align=center;fontSize=14;" vertex="1" parent="1">
          <mxGeometry x="2061" y="1340" width="160" height="116" as="geometry" />
        </mxCell>
        <mxCell id="zb0AIQ8FTANLbSavlnyJ-78" value="dir" style="text;strokeColor=none;fillColor=none;spacingLeft=4;spacingRight=4;overflow=hidden;rotatable=0;points=[[0,0.5],[1,0.5]];portConstraint=eastwest;fontSize=12;" vertex="1" parent="zb0AIQ8FTANLbSavlnyJ-77">
          <mxGeometry y="26" width="160" height="30" as="geometry" />
        </mxCell>
        <mxCell id="zb0AIQ8FTANLbSavlnyJ-79" value="buffers" style="text;strokeColor=none;fillColor=none;spacingLeft=4;spacingRight=4;overflow=hidden;rotatable=0;points=[[0,0.5],[1,0.5]];portConstraint=eastwest;fontSize=12;" vertex="1" parent="zb0AIQ8FTANLbSavlnyJ-77">
          <mxGeometry y="56" width="160" height="30" as="geometry" />
        </mxCell>
        <mxCell id="zb0AIQ8FTANLbSavlnyJ-80" value="Item 3" style="text;strokeColor=none;fillColor=none;spacingLeft=4;spacingRight=4;overflow=hidden;rotatable=0;points=[[0,0.5],[1,0.5]];portConstraint=eastwest;fontSize=12;" vertex="1" parent="zb0AIQ8FTANLbSavlnyJ-77">
          <mxGeometry y="86" width="160" height="30" as="geometry" />
        </mxCell>
        <mxCell id="zb0AIQ8FTANLbSavlnyJ-81" style="edgeStyle=elbowEdgeStyle;rounded=0;orthogonalLoop=1;jettySize=auto;html=1;exitX=0;exitY=0.5;exitDx=0;exitDy=0;entryX=1;entryY=0.5;entryDx=0;entryDy=0;" edge="1" parent="1" source="zb0AIQ8FTANLbSavlnyJ-78" target="zb0AIQ8FTANLbSavlnyJ-75">
          <mxGeometry relative="1" as="geometry" />
        </mxCell>
        <mxCell id="zb0AIQ8FTANLbSavlnyJ-83" value="inode" style="swimlane;fontStyle=0;childLayout=stackLayout;horizontal=1;startSize=26;horizontalStack=0;resizeParent=1;resizeParentMax=0;resizeLast=0;collapsible=1;marginBottom=0;align=center;fontSize=14;" vertex="1" parent="1">
          <mxGeometry x="1500" y="1300" width="160" height="116" as="geometry" />
        </mxCell>
        <mxCell id="zb0AIQ8FTANLbSavlnyJ-84" value="i_private" style="text;strokeColor=none;fillColor=none;spacingLeft=4;spacingRight=4;overflow=hidden;rotatable=0;points=[[0,0.5],[1,0.5]];portConstraint=eastwest;fontSize=12;" vertex="1" parent="zb0AIQ8FTANLbSavlnyJ-83">
          <mxGeometry y="26" width="160" height="30" as="geometry" />
        </mxCell>
        <mxCell id="zb0AIQ8FTANLbSavlnyJ-85" value="Item 2" style="text;strokeColor=none;fillColor=none;spacingLeft=4;spacingRight=4;overflow=hidden;rotatable=0;points=[[0,0.5],[1,0.5]];portConstraint=eastwest;fontSize=12;" vertex="1" parent="zb0AIQ8FTANLbSavlnyJ-83">
          <mxGeometry y="56" width="160" height="30" as="geometry" />
        </mxCell>
        <mxCell id="zb0AIQ8FTANLbSavlnyJ-86" value="Item 3" style="text;strokeColor=none;fillColor=none;spacingLeft=4;spacingRight=4;overflow=hidden;rotatable=0;points=[[0,0.5],[1,0.5]];portConstraint=eastwest;fontSize=12;" vertex="1" parent="zb0AIQ8FTANLbSavlnyJ-83">
          <mxGeometry y="86" width="160" height="30" as="geometry" />
        </mxCell>
        <mxCell id="zb0AIQ8FTANLbSavlnyJ-89" value="set_ftrace_filter" style="swimlane;fontStyle=0;childLayout=stackLayout;horizontal=1;startSize=26;horizontalStack=0;resizeParent=1;resizeParentMax=0;resizeLast=0;collapsible=1;marginBottom=0;align=center;fontSize=14;" vertex="1" parent="1">
          <mxGeometry x="1580" y="1620" width="160" height="116" as="geometry" />
        </mxCell>
        <mxCell id="zb0AIQ8FTANLbSavlnyJ-90" value="i_private = ops" style="text;strokeColor=none;fillColor=none;spacingLeft=4;spacingRight=4;overflow=hidden;rotatable=0;points=[[0,0.5],[1,0.5]];portConstraint=eastwest;fontSize=12;" vertex="1" parent="zb0AIQ8FTANLbSavlnyJ-89">
          <mxGeometry y="26" width="160" height="30" as="geometry" />
        </mxCell>
        <mxCell id="zb0AIQ8FTANLbSavlnyJ-91" value="Item 2" style="text;strokeColor=none;fillColor=none;spacingLeft=4;spacingRight=4;overflow=hidden;rotatable=0;points=[[0,0.5],[1,0.5]];portConstraint=eastwest;fontSize=12;" vertex="1" parent="zb0AIQ8FTANLbSavlnyJ-89">
          <mxGeometry y="56" width="160" height="30" as="geometry" />
        </mxCell>
        <mxCell id="zb0AIQ8FTANLbSavlnyJ-92" value="Item 3" style="text;strokeColor=none;fillColor=none;spacingLeft=4;spacingRight=4;overflow=hidden;rotatable=0;points=[[0,0.5],[1,0.5]];portConstraint=eastwest;fontSize=12;" vertex="1" parent="zb0AIQ8FTANLbSavlnyJ-89">
          <mxGeometry y="86" width="160" height="30" as="geometry" />
        </mxCell>
        <mxCell id="zb0AIQ8FTANLbSavlnyJ-94" value="current_tracer" style="swimlane;fontStyle=0;childLayout=stackLayout;horizontal=1;startSize=26;horizontalStack=0;resizeParent=1;resizeParentMax=0;resizeLast=0;collapsible=1;marginBottom=0;align=center;fontSize=14;" vertex="1" parent="1">
          <mxGeometry x="1780" y="1620" width="160" height="116" as="geometry" />
        </mxCell>
        <mxCell id="zb0AIQ8FTANLbSavlnyJ-95" value="i_private" style="text;strokeColor=none;fillColor=none;spacingLeft=4;spacingRight=4;overflow=hidden;rotatable=0;points=[[0,0.5],[1,0.5]];portConstraint=eastwest;fontSize=12;" vertex="1" parent="zb0AIQ8FTANLbSavlnyJ-94">
          <mxGeometry y="26" width="160" height="30" as="geometry" />
        </mxCell>
        <mxCell id="zb0AIQ8FTANLbSavlnyJ-96" value="i_fops = set_tracer_fops" style="text;strokeColor=none;fillColor=none;spacingLeft=4;spacingRight=4;overflow=hidden;rotatable=0;points=[[0,0.5],[1,0.5]];portConstraint=eastwest;fontSize=12;" vertex="1" parent="zb0AIQ8FTANLbSavlnyJ-94">
          <mxGeometry y="56" width="160" height="30" as="geometry" />
        </mxCell>
        <mxCell id="zb0AIQ8FTANLbSavlnyJ-97" value="Item 3" style="text;strokeColor=none;fillColor=none;spacingLeft=4;spacingRight=4;overflow=hidden;rotatable=0;points=[[0,0.5],[1,0.5]];portConstraint=eastwest;fontSize=12;" vertex="1" parent="zb0AIQ8FTANLbSavlnyJ-94">
          <mxGeometry y="86" width="160" height="30" as="geometry" />
        </mxCell>
        <mxCell id="zb0AIQ8FTANLbSavlnyJ-98" value="allocate_trace_buffers" style="text;html=1;align=center;verticalAlign=middle;resizable=0;points=[];autosize=1;strokeColor=none;" vertex="1" parent="1">
          <mxGeometry x="2225" y="1400" width="130" height="20" as="geometry" />
        </mxCell>
        <mxCell id="zb0AIQ8FTANLbSavlnyJ-99" style="edgeStyle=orthogonalEdgeStyle;rounded=0;orthogonalLoop=1;jettySize=auto;html=1;exitX=1;exitY=0.5;exitDx=0;exitDy=0;entryX=0;entryY=0;entryDx=0;entryDy=0;" edge="1" parent="1" source="zb0AIQ8FTANLbSavlnyJ-95" target="zb0AIQ8FTANLbSavlnyJ-77">
          <mxGeometry relative="1" as="geometry" />
        </mxCell>
      </root>
    </mxGraphModel>
  </diagram>
</mxfile>
